# This file uses centimeters as units for non-parametric coordinates.

mtllib wing_right.mtl
g default
v -0.157440 -1.034758 0.203002
v -0.157440 -1.166261 -0.519297
v -0.155290 -0.552581 -1.215297
v -0.155290 -0.386011 -1.209946
v -0.066436 -0.280066 1.009552
v -0.398659 -0.280066 -0.063421
v -0.398659 -0.280066 -0.636684
v -0.155290 -0.280066 -1.043377
v -0.157440 0.457093 0.203002
v -0.157440 0.606129 -0.528064
v -0.155290 0.009983 -1.197763
v -0.155290 -0.139053 -1.209946
v -0.006730 0.606494 0.264994
v -0.006730 0.785736 -0.614239
v -0.004143 0.068768 -1.419666
v -0.004143 -0.110474 -1.434320
v -0.049676 0.457093 0.203002
v -0.049676 0.606129 -0.528064
v -0.047525 0.009983 -1.197762
v -0.047525 -0.139053 -1.209946
v 0.041327 -0.280066 1.009552
v -0.171763 -0.267329 -0.117850
v -0.208933 -0.280066 -0.636684
v -0.047525 -0.280066 -1.043377
v -0.049676 -1.034758 0.203002
v -0.049676 -1.166261 -0.519297
v -0.047525 -0.552581 -1.215297
v -0.047525 -0.386011 -1.209946
v -0.006730 -1.187713 0.264994
v -0.006730 -1.345868 -0.603695
v -0.004143 -0.607813 -1.440753
v -0.004143 -0.407484 -1.434320
v -0.004143 -0.280066 -1.233991
v 0.035386 -0.280066 1.235010
v -0.171763 -0.095411 -0.117850
v -0.158851 -0.257186 0.108858
v -0.158851 -0.098385 0.108858
v 0.058719 -0.231672 -0.142230
v 0.108663 -0.207235 -0.108858
v 0.142035 -0.190363 -0.058913
v 0.153754 -0.183963 0.000000
v 0.142035 -0.190363 0.058913
v 0.108664 -0.207235 0.108858
v 0.058719 -0.231672 0.142230
v -0.000195 -0.252035 0.153949
v -0.059108 -0.257271 0.142230
v -0.059108 -0.257271 -0.142230
v -0.000195 -0.252035 -0.153949
v 0.058719 -0.065327 -0.142230
v 0.108663 -0.038272 -0.108858
v 0.142035 -0.018536 -0.058913
v 0.153754 -0.011503 0.000000
v 0.142035 -0.018536 0.058913
v 0.108664 -0.038272 0.108858
v 0.058719 -0.065327 0.142230
v -0.000195 -0.090477 0.153949
v -0.059108 -0.098203 0.142230
v -0.059108 -0.098203 -0.142230
v -0.000195 -0.090477 -0.153949
vt 0.716212 0.481733
vt 0.716212 0.547660
vt 0.669842 0.531290
vt 0.661762 0.575670
vt 0.716212 0.582883
vt 0.699468 0.618435
vt 0.716212 0.607872
vt 0.709703 0.618106
vt 0.761506 0.531290
vt 0.770663 0.576209
vt 0.734034 0.617358
vt 0.724877 0.618106
vt 0.781699 0.581504
vt 0.737646 0.630992
vt 0.726633 0.631893
vt 0.867984 0.478247
vt 0.864372 0.491881
vt 0.856971 0.477346
vt 0.855215 0.491133
vt 0.846550 0.526356
vt 0.846550 0.501367
vt 0.829806 0.490804
vt 0.840041 0.491133
vt 0.826413 0.476951
vt 0.838722 0.477346
vt 0.650726 0.580856
vt 0.660444 0.527481
vt 0.696074 0.632288
vt 0.708383 0.631893
vt 0.846550 0.489655
vt 0.716212 0.619584
vt 0.901001 0.533030
vt 0.912037 0.527735
vt 0.770686 0.527481
vt 0.716212 0.467880
vt 0.781064 0.528383
vt 0.792100 0.533568
vt 0.790781 0.581758
vt 0.800180 0.577949
vt 0.891844 0.577949
vt 0.901024 0.581758
vt 0.857896 0.558235
vt 0.857713 0.572164
vt 0.847333 0.558235
vt 0.847956 0.572164
vt 0.846550 0.627506
vt 0.846550 0.641359
vt 0.775818 0.598663
vt 0.790095 0.598663
vt 0.777915 0.601527
vt 0.792417 0.601527
vt 0.779364 0.605814
vt 0.794111 0.605814
vt 0.779913 0.610871
vt 0.794715 0.610871
vt 0.794111 0.615927
vt 0.779364 0.615927
vt 0.792417 0.620214
vt 0.777915 0.620214
vt 0.790095 0.623078
vt 0.775818 0.623078
vt 0.659214 0.600422
vt 0.657055 0.605478
vt 0.644937 0.600422
vt 0.643189 0.605478
vt 0.656392 0.610534
vt 0.642739 0.610534
vt 0.642747 0.619095
vt 0.656376 0.619095
vt 0.680801 0.642684
vt 0.666045 0.642684
vt 0.679937 0.633015
vt 0.666285 0.633015
vt 0.679488 0.627958
vt 0.665622 0.627958
vt 0.677740 0.622902
vt 0.663463 0.622902
vt 0.787350 0.639700
vt 0.813776 0.639700
vt 0.788356 0.644756
vt 0.812771 0.644756
vt 0.788356 0.634643
vt 0.812771 0.634643
vt 0.791220 0.630357
vt 0.809906 0.630357
vt 0.795507 0.627493
vt 0.805620 0.627493
vt 0.800563 0.626487
vt 0.791220 0.653317
vt 0.810678 0.654425
vt 0.777033 0.643356
vt 0.774168 0.651917
vt 0.752618 0.643356
vt 0.754710 0.653025
vt 0.751612 0.638300
vt 0.778039 0.638300
vt 0.752618 0.633243
vt 0.777033 0.633243
vt 0.755482 0.628956
vt 0.774168 0.628956
vt 0.759769 0.626092
vt 0.769882 0.626092
vt 0.764825 0.625086
vn -0.936543 -0.196973 0.289980
vn -0.954277 -0.244098 0.172546
vn -0.954277 -0.244098 0.172546
vn -0.954277 -0.244098 0.172546
vn -0.954277 -0.244098 0.172546
vn -0.956431 -0.287238 0.052295
vn -0.964894 -0.262640 0.000000
vn -0.952490 -0.276252 -0.128250
vn -0.952490 -0.276252 -0.128250
vn -0.952490 -0.276252 -0.128250
vn -0.952490 -0.276252 -0.128250
vn -0.924096 -0.285226 -0.254346
vn -0.816330 0.308177 -0.488501
vn -0.952977 0.161692 -0.256302
vn -0.952977 0.161692 -0.256302
vn -0.952977 0.161692 -0.256302
vn -0.952977 0.161692 -0.256302
vn -1.000000 0.000000 0.000000
vn -0.935670 0.201470 0.289710
vn -0.952620 0.248159 0.175875
vn -0.952620 0.248159 0.175875
vn -0.952620 0.248159 0.175875
vn -0.952620 0.248159 0.175875
vn -0.954876 0.291019 0.059328
vn -0.964894 0.262640 0.000000
vn -0.952792 0.275095 -0.128490
vn -0.952792 0.275095 -0.128490
vn -0.952792 0.275095 -0.128490
vn -0.952792 0.275095 -0.128490
vn -0.924673 0.282925 -0.254821
vn -0.827733 -0.263650 -0.495325
vn -0.955964 -0.137898 -0.259071
vn -0.955964 -0.137898 -0.259071
vn -0.955964 -0.137898 -0.259071
vn -0.955964 -0.137898 -0.259071
vn -1.000000 0.000000 0.000000
vn -0.785487 0.461006 -0.412897
vn -0.785486 0.461007 -0.412898
vn -0.785486 0.461007 -0.412898
vn -0.785486 0.461007 -0.412898
vn -0.785486 0.461007 -0.412898
vn -0.785485 0.461007 -0.412899
vn -0.831184 0.045300 -0.554149
vn -0.831184 0.045303 -0.554149
vn -0.831184 0.045303 -0.554149
vn -0.831184 0.045303 -0.554149
vn -0.831184 0.045303 -0.554149
vn -0.831183 0.045305 -0.554150
vn 0.982063 -0.015364 0.187925
vn 0.982063 -0.015364 0.187925
vn 0.982063 -0.015364 0.187925
vn 0.982063 -0.015364 0.187925
vn 0.982063 -0.015364 0.187925
vn 0.982063 -0.015363 0.187925
vn 0.912059 0.192671 0.361976
vn 0.977768 0.098526 0.185103
vn 0.977768 0.098526 0.185103
vn 0.977768 0.098526 0.185103
vn 0.977768 0.098526 0.185103
vn 1.000000 0.000000 0.000000
vn 0.905283 -0.226661 0.359287
vn 0.976034 -0.116113 0.184055
vn 0.976034 -0.116113 0.184055
vn 0.976034 -0.116113 0.184055
vn 0.976034 -0.116113 0.184055
vn 1.000000 0.000000 0.000000
vn 0.981688 -0.006114 0.190395
vn 0.981688 -0.006115 0.190395
vn 0.981688 -0.006115 0.190395
vn 0.981688 -0.006115 0.190395
vn 0.981688 -0.006115 0.190395
vn 0.981689 -0.006115 0.190395
vn -0.731287 -0.671039 0.122170
vn -0.731287 -0.671040 0.122170
vn -0.731287 -0.671040 0.122170
vn -0.731287 -0.671040 0.122170
vn -0.731287 -0.671040 0.122170
vn -0.731286 -0.671040 0.122170
vn -0.784046 -0.464368 -0.411868
vn -0.784047 -0.464367 -0.411867
vn -0.784047 -0.464367 -0.411867
vn -0.784047 -0.464367 -0.411867
vn -0.784047 -0.464367 -0.411867
vn -0.784047 -0.464366 -0.411866
vn -0.828439 0.017980 -0.559790
vn -0.828439 0.017979 -0.559791
vn -0.828439 0.017979 -0.559791
vn -0.828439 0.017979 -0.559791
vn -0.828439 0.017979 -0.559791
vn -0.828439 0.017977 -0.559791
vn 0.920637 -0.329429 0.209531
vn 0.920637 -0.329429 0.209531
vn 0.920637 -0.329429 0.209531
vn 0.920637 -0.329429 0.209531
vn 0.920637 -0.329429 0.209531
vn 0.920637 -0.329430 0.209531
vn -0.560509 0.698779 -0.444453
vn -0.560509 0.698779 -0.444453
vn -0.560509 0.698779 -0.444453
vn -0.560509 0.698779 -0.444453
vn -0.560509 0.698779 -0.444453
vn -0.560509 0.698778 -0.444453
vn 0.943197 0.253571 0.214666
vn 0.943197 0.253571 0.214666
vn 0.943197 0.253571 0.214666
vn 0.943197 0.253571 0.214666
vn 0.943197 0.253571 0.214666
vn 0.943197 0.253571 0.214665
vn -0.631687 -0.591674 -0.500893
vn -0.631687 -0.591674 -0.500893
vn -0.631687 -0.591674 -0.500893
vn -0.631687 -0.591674 -0.500893
vn -0.631687 -0.591674 -0.500893
vn -0.631687 -0.591674 -0.500893
vn 0.975605 -0.162411 0.147706
vn 0.975605 -0.162411 0.147707
vn 0.975605 -0.162411 0.147707
vn 0.975605 -0.162411 0.147707
vn 0.975605 -0.162411 0.147707
vn 0.975605 -0.162412 0.147708
vn -0.725283 0.674576 0.137520
vn -0.725283 0.674576 0.137520
vn -0.725283 0.674576 0.137520
vn -0.725283 0.674576 0.137520
vn -0.725283 0.674576 0.137520
vn -0.725283 0.674576 0.137520
vn -0.702381 -0.478492 0.526978
vn -0.779881 -0.426848 0.457806
vn -0.779881 -0.426848 0.457806
vn -0.779881 -0.426848 0.457806
vn -0.779881 -0.426848 0.457806
vn -0.846885 -0.369459 0.382473
vn -0.844117 0.377009 0.381222
vn -0.776565 0.435035 0.455732
vn -0.776565 0.435035 0.455732
vn -0.776565 0.435035 0.455732
vn -0.776565 0.435035 0.455732
vn -0.698543 0.487196 0.524098
vn 0.966448 0.252709 -0.046009
vn 0.966448 0.252709 -0.046009
vn 0.966448 0.252709 -0.046009
vn 0.966448 0.252709 -0.046009
vn 0.966448 0.252709 -0.046009
vn 0.966448 0.252710 -0.046009
vn 0.975382 0.163903 0.147532
vn 0.975382 0.163902 0.147531
vn 0.975382 0.163902 0.147531
vn 0.975382 0.163902 0.147531
vn 0.975382 0.163902 0.147531
vn 0.975383 0.163901 0.147530
vn 0.965311 -0.255842 -0.052156
vn 0.965311 -0.255842 -0.052156
vn 0.965311 -0.255842 -0.052156
vn 0.965311 -0.255842 -0.052156
vn 0.965311 -0.255842 -0.052156
vn 0.965311 -0.255842 -0.052156
vn 0.980884 -0.188354 -0.048892
vn 0.980270 -0.193681 -0.039484
vn 0.980884 -0.188354 -0.048892
vn 0.981382 -0.183004 -0.058294
vn 0.980884 -0.188354 -0.048892
vn 0.980884 -0.188354 -0.048892
vn 0.988389 -0.111903 0.102787
vn 0.985439 -0.166590 0.034017
vn 0.964806 -0.248237 0.086769
vn 0.993795 0.083700 -0.073251
vn 0.999661 -0.004201 0.025714
vn 0.985439 -0.166590 0.034017
vn 0.985439 -0.166590 0.034017
vn 0.999661 -0.004201 0.025714
vn 0.964806 -0.248237 0.086769
vn 0.988898 0.146192 -0.026616
vn 0.989322 0.138812 -0.044429
vn 0.989322 0.138812 -0.044429
vn 0.989322 0.138812 -0.044429
vn 0.989322 0.138812 -0.044429
vn 0.989377 0.131380 -0.062227
vn 0.964466 0.196690 0.176406
vn 0.999661 -0.004201 0.025714
vn 0.981728 0.183227 0.051352
vn 0.981728 0.183227 0.051352
vn 0.999661 -0.004201 0.025714
vn 0.993795 0.083700 -0.073251
vn 0.952085 0.162253 -0.259245
vn 0.991937 0.044747 -0.118572
vn 0.991937 0.044747 -0.118572
vn 0.991937 0.044747 -0.118572
vn 0.991937 0.044747 -0.118572
vn 0.996887 -0.074334 0.026273
vn 0.951482 -0.166007 -0.259081
vn 0.991895 -0.045778 -0.118530
vn 0.991895 -0.045778 -0.118530
vn 0.991895 -0.045778 -0.118530
vn 0.991895 -0.045778 -0.118530
vn 0.996755 0.076092 0.026269
vn 0.974982 0.055346 -0.215283
vn 0.974159 -0.012329 -0.225526
vn 0.970792 0.110521 -0.212950
vn 0.958826 -0.147298 -0.242810
vn 0.974159 -0.012329 -0.225526
vn 0.970257 -0.073859 -0.230537
vn 0.970257 -0.073859 -0.230537
vn 0.974159 -0.012329 -0.225526
vn 0.974982 0.055346 -0.215283
vn 0.320724 0.000000 -0.947173
vn 0.442972 0.000000 -0.896536
vn 0.658780 0.000000 -0.752336
vn 0.658780 0.000000 -0.752336
vn 0.442972 0.000000 -0.896536
vn 0.752341 0.000000 -0.658773
vn 0.658780 0.000000 -0.752336
vn 0.752341 0.000000 -0.658773
vn 0.896537 0.000000 -0.442969
vn 0.896537 0.000000 -0.442969
vn 0.752341 0.000000 -0.658773
vn 0.947172 0.000000 -0.320727
vn 0.896537 0.000000 -0.442969
vn 0.947172 0.000000 -0.320727
vn 1.000000 0.000000 -0.000003
vn 1.000000 0.000000 -0.000003
vn 0.947172 0.000000 -0.320727
vn 1.000000 0.000000 -0.000003
vn 1.000000 0.000000 -0.000003
vn 0.947173 0.000000 0.320723
vn 1.000000 0.000000 -0.000003
vn 1.000000 0.000000 -0.000003
vn 0.947173 0.000000 0.320723
vn 0.896538 0.000000 0.442966
vn 0.947173 0.000000 0.320723
vn 0.752341 0.000000 0.658774
vn 0.896538 0.000000 0.442966
vn 0.896538 0.000000 0.442966
vn 0.752341 0.000000 0.658774
vn 0.658777 0.000000 0.752338
vn 0.752341 0.000000 0.658774
vn 0.442969 0.000000 0.896537
vn 0.658777 0.000000 0.752338
vn 0.658777 0.000000 0.752338
vn 0.442969 0.000000 0.896537
vn 0.320724 0.000000 0.947173
vn 0.442969 0.000000 0.896537
vn 0.066160 0.000000 0.997809
vn 0.320724 0.000000 0.947173
vn 0.320724 0.000000 0.947173
vn 0.066160 0.000000 0.997809
vn -0.066160 0.000000 0.997809
vn 0.066160 0.000000 0.997809
vn -0.256707 0.000000 0.966489
vn -0.066160 0.000000 0.997809
vn -0.066160 0.000000 0.997809
vn -0.256707 0.000000 0.966489
vn -0.256707 0.000000 0.966489
vn -0.256707 0.000000 0.966489
vn -0.256707 0.000000 0.966489
vn -0.317294 0.000000 0.948327
vn -0.317294 0.000000 0.948327
vn -0.256707 0.000000 0.966489
vn -0.317294 0.000000 0.948327
vn -0.211523 0.000000 -0.977373
vn -0.211523 0.000000 -0.977373
vn -0.206053 0.000000 -0.978541
vn -0.206053 0.000000 -0.978541
vn -0.211523 0.000000 -0.977373
vn -0.200576 0.000000 -0.979678
vn -0.206053 0.000000 -0.978541
vn -0.200576 0.000000 -0.979678
vn -0.066161 0.000000 -0.997809
vn -0.066161 0.000000 -0.997809
vn -0.200576 0.000000 -0.979678
vn 0.066158 0.000000 -0.997809
vn -0.066161 0.000000 -0.997809
vn 0.066158 0.000000 -0.997809
vn 0.320724 0.000000 -0.947173
vn 0.320724 0.000000 -0.947173
vn 0.066158 0.000000 -0.997809
vn 0.442972 0.000000 -0.896536
vn -0.307636 0.951504 0.000000
vn -0.219377 0.975640 0.000000
vn -0.087457 0.996168 0.000000
vn -0.087457 0.996168 0.000000
vn -0.219377 0.975640 0.000000
vn -0.034940 0.999382 0.003862
vn -0.448839 0.893613 0.000000
vn -0.420920 0.907098 -0.000000
vn -0.307636 0.951504 0.000000
vn -0.307636 0.951504 0.000000
vn -0.420920 0.907098 -0.000000
vn -0.219377 0.975640 0.000000
vn -0.498210 0.867056 0.000002
vn -0.487294 0.873238 0.000001
vn -0.448839 0.893613 0.000000
vn -0.448839 0.893613 0.000000
vn -0.487294 0.873238 0.000001
vn -0.420920 0.907098 -0.000000
vn -0.511796 0.859107 0.000002
vn -0.510881 0.859651 0.000002
vn -0.498210 0.867056 0.000002
vn -0.498210 0.867056 0.000002
vn -0.510881 0.859651 0.000002
vn -0.487294 0.873238 0.000001
vn -0.514537 0.857468 0.000002
vn -0.510881 0.859651 0.000002
vn -0.511796 0.859107 0.000002
vn -0.087457 0.996168 0.000000
vn -0.034940 0.999382 0.003862
vn 0.012733 0.999902 0.005780
vn 0.012733 0.999902 0.005780
vn -0.034940 0.999382 0.003862
vn 0.027279 0.999561 0.011558
vn 0.043884 -0.999037 0.000000
vn 0.048251 -0.998645 0.019506
vn 0.068424 -0.997609 0.009749
vn 0.068424 -0.997609 0.009749
vn 0.048251 -0.998645 0.019506
vn 0.097221 -0.994500 0.038958
vn 0.248948 -0.968517 0.000000
vn 0.169036 -0.985610 0.000000
vn 0.068424 -0.997609 0.009749
vn 0.068424 -0.997609 0.009749
vn 0.169036 -0.985610 0.000000
vn 0.043884 -0.999037 0.000000
vn 0.402552 -0.915397 0.000000
vn 0.364889 -0.931051 0.000000
vn 0.248948 -0.968517 0.000000
vn 0.248948 -0.968517 0.000000
vn 0.364889 -0.931051 0.000000
vn 0.169036 -0.985610 0.000000
vn 0.447309 -0.894380 -0.000002
vn 0.443400 -0.896324 -0.000001
vn 0.402552 -0.915397 0.000000
vn 0.402552 -0.915397 0.000000
vn 0.443400 -0.896324 -0.000001
vn 0.364889 -0.931051 0.000000
vn 0.465316 -0.885145 -0.000002
vn 0.460625 -0.887595 -0.000002
vn 0.447309 -0.894380 -0.000002
vn 0.447309 -0.894380 -0.000002
vn 0.460625 -0.887595 -0.000002
vn 0.443400 -0.896324 -0.000001
vn 0.479310 -0.877646 -0.000002
vn 0.460625 -0.887595 -0.000002
vn 0.465316 -0.885145 -0.000002
s off
g Mesh
usemtl lambert2SG
f 5/1/1 6/2/2 1/3/3
f 1/3/4 6/2/5 2/4/6
f 6/2/7 7/5/8 2/4/9
f 2/4/10 7/5/11 3/6/12
f 7/5/13 8/7/14 3/6/15
f 3/6/16 8/7/17 4/8/18
f 5/1/19 9/9/20 6/2/21
f 6/2/22 9/9/23 10/10/24
f 6/2/25 10/10/26 7/5/27
f 7/5/28 10/10/29 11/11/30
f 7/5/31 11/11/32 8/7/33
f 8/7/34 11/11/35 12/12/36
f 10/10/37 14/13/38 11/11/39
f 11/11/40 14/13/41 15/14/42
f 12/12/43 11/11/44 16/15/45
f 16/15/46 11/11/47 15/14/48
f 15/16/49 19/17/50 16/18/51
f 16/18/52 19/17/53 20/19/54
f 23/20/55 24/21/56 19/17/57
f 19/17/58 24/21/59 20/19/60
f 23/20/61 27/22/62 24/21/63
f 24/21/64 27/22/65 28/23/66
f 31/24/67 32/25/68 27/22/69
f 27/22/70 32/25/71 28/23/72
f 30/26/73 29/27/74 2/4/75
f 2/4/76 29/27/77 1/3/78
f 31/28/79 30/26/80 3/6/81
f 3/6/82 30/26/83 2/4/84
f 4/8/85 32/29/86 3/6/87
f 3/6/88 32/29/89 31/28/90
f 32/25/91 33/30/92 28/23/93
f 28/23/94 33/30/95 24/21/96
f 8/7/97 33/31/98 4/8/99
f 4/8/100 33/31/101 32/29/102
f 16/18/103 20/19/104 33/30/105
f 33/30/106 20/19/107 24/21/108
f 16/15/109 33/31/110 12/12/111
f 12/12/112 33/31/113 8/7/114
f 18/32/115 19/17/116 14/33/117
f 14/33/118 19/17/119 15/16/120
f 9/9/121 13/34/122 10/10/123
f 10/10/124 13/34/125 14/13/126
f 1/3/127 29/27/128 5/1/129
f 5/1/130 29/27/131 34/35/132
f 34/35/133 13/34/134 5/1/135
f 5/1/136 13/34/137 9/9/138
f 30/36/139 26/37/140 29/38/141
f 29/38/142 26/37/143 25/39/144
f 31/24/145 27/22/146 30/36/147
f 30/36/148 27/22/149 26/37/150
f 17/40/151 18/32/152 13/41/153
f 13/41/154 18/32/155 14/33/156
f 35/42/157 18/32/158 17/40/159
f 37/43/160 35/42/161 17/40/162
f 18/32/163 35/42/164 19/17/165
f 22/44/166 23/20/167 35/42/168
f 35/42/169 23/20/170 19/17/171
f 26/37/172 22/44/173 25/39/174
f 25/39/175 22/44/176 36/45/177
f 27/22/178 23/20/179 26/37/180
f 26/37/181 23/20/182 22/44/183
f 25/39/184 21/46/185 29/38/186
f 29/38/187 21/46/188 34/47/189
f 17/40/190 13/41/191 21/46/192
f 21/46/193 13/41/194 34/47/195
f 36/45/196 21/46/197 25/39/198
f 17/40/199 21/46/200 37/43/201
f 37/43/202 21/46/203 36/45/204
f 38/48/205 49/49/206 39/50/207
f 39/50/208 49/49/209 50/51/210
f 39/50/211 50/51/212 40/52/213
f 40/52/214 50/51/215 51/53/216
f 40/52/217 51/53/218 41/54/219
f 41/54/220 51/53/221 52/55/222
f 52/55/223 53/56/224 41/54/225
f 41/54/226 53/56/227 42/57/228
f 53/56/229 54/58/230 42/57/231
f 42/57/232 54/58/233 43/59/234
f 54/58/235 55/60/236 43/59/237
f 43/59/238 55/60/239 44/61/240
f 55/62/241 56/63/242 44/64/243
f 44/64/244 56/63/245 45/65/246
f 56/63/247 57/66/248 45/65/249
f 45/65/250 57/66/251 46/67/252
f 46/67/253 57/66/254 36/68/255
f 36/68/256 57/66/257 37/69/258
f 22/70/259 35/71/260 47/72/261
f 47/72/262 35/71/263 58/73/264
f 47/72/265 58/73/266 48/74/267
f 48/74/268 58/73/269 59/75/270
f 48/74/271 59/75/272 38/76/273
f 38/76/274 59/75/275 49/77/276
f 56/78/277 59/79/278 57/80/279
f 57/80/280 59/79/281 58/81/282
f 55/82/283 49/83/284 56/78/285
f 56/78/286 49/83/287 59/79/288
f 54/84/289 50/85/290 55/82/291
f 55/82/292 50/85/293 49/83/294
f 53/86/295 51/87/296 54/84/297
f 54/84/298 51/87/299 50/85/300
f 52/88/301 51/87/302 53/86/303
f 57/80/304 58/81/305 37/89/306
f 37/89/307 58/81/308 35/90/309
f 46/91/310 36/92/311 47/93/312
f 47/93/313 36/92/314 22/94/315
f 48/95/316 45/96/317 47/93/318
f 47/93/319 45/96/320 46/91/321
f 38/97/322 44/98/323 48/95/324
f 48/95/325 44/98/326 45/96/327
f 39/99/328 43/100/329 38/97/330
f 38/97/331 43/100/332 44/98/333
f 40/101/334 42/102/335 39/99/336
f 39/99/337 42/102/338 43/100/339
f 41/103/340 42/102/341 40/101/342
